#!OML:ASF F:\VICON\USERDATA\INSTALL\rory3\rory3.ASF
:FULLY-SPECIFIED
:DEGREES
151
root 4.42047 17.6901 6.97094 -2.08582 -4.89434 -6.90988
lowerback 10.1357 1.87221 6.44368
upperback 0.140479 3.35039 1.94245
thorax -5.29355 1.50774 -2.063
lowerneck -16.1047 -3.79337 -1.70806
upperneck 20.9729 -5.00323 0.703459
head 9.32668 -2.39239 -0.110042
rclavicle -1.73961e-014 -2.90101e-014
rhumerus -22.4412 -10.6614 -80.3154
rradius 32.2995
rwrist -1.04789
rhand -19.3172 22.3312
rfingers 7.12502
rthumb 6.99894 -7.53314
lclavicle -1.73961e-014 -2.90101e-014
lhumerus -39.506 -0.375254 87.0143
lradius 26.0179
lwrist 5.98769
lhand -28.25 19.3563
lfingers 7.12502
lthumb -1.62735 49.3298
rfemur 11.9062 7.36626 33.3242
rtibia 30.3607
rfoot -18.3336 -3.55228
rtoes -7.69141
lfemur -24.6149 -3.87581 -11.1588
ltibia 18.8221
lfoot -6.95996 4.75824
ltoes -6.84917
152
root 4.44485 17.6953 7.20368 -2.22302 -4.9136 -6.50851
lowerback 9.90328 1.95716 6.17653
upperback 0.229767 3.40038 1.80004
thorax -5.07031 1.54675 -2.05728
lowerneck -16.5631 -3.8666 -1.5614
upperneck 21.2633 -5.10288 0.536737
head 9.50497 -2.44039 -0.217382
rclavicle 1.5327e-014 2.15619e-014
rhumerus -22.4887 -11.1924 -80.153
rradius 31.9415
rwrist -0.828465
rhand -18.7749 23.4067
rfingers 7.12502
rthumb 7.52238 -6.43952
lclavicle 1.5327e-014 2.15619e-014
lhumerus -39.2045 -0.406379 87.0305
lradius 25.3226
lwrist 5.88676
lhand -27.957 19.6141
lfingers 7.12502
lthumb -1.3444 49.5896
rfemur 12.0935 7.14081 32.6868
rtibia 31.5179
rfoot -17.3601 -2.80296
rtoes -6.45967
lfemur -24.4401 -3.6252 -11.904
ltibia 19.8176
lfoot -5.90391 2.58961
ltoes -5.74423
153
root 4.47306 17.7088 7.43144 -2.27881 -4.69561 -6.23654
lowerback 9.70597 1.92814 6.0322
upperback 0.201263 3.3287 1.74542
thorax -4.99953 1.51643 -2.0165
lowerneck -16.7731 -3.837 -1.64368
upperneck 21.593 -5.06263 0.617815
head 9.66439 -2.41502 -0.179261
rclavicle 2.218e-014 4.17448e-015
rhumerus -22.455 -11.8709 -79.9017
rradius 31.3169
rwrist -0.388919
rhand -18.6735 23.7721
rfingers 7.12502
rthumb 7.62034 -6.07062
lclavicle 2.218e-014 4.17448e-015
lhumerus -38.9246 -0.0522337 86.8747
lradius 24.6257
lwrist 4.92196
lhand -28.4838 19.7077
lfingers 7.12502
lthumb -1.85317 49.6794
rfemur 12.0509 6.79877 32.1991
rtibia 32.8679
rfoot -16.1765 -2.19294
rtoes -6.75951
lfemur -24.4039 -4.15029 -12.272
ltibia 20.6862
lfoot -4.08315 0.819347
ltoes -5.92207
154
root 4.49842 17.72 7.65722 -2.42063 -4.39878 -5.79692
lowerback 9.67084 1.83596 5.64115
upperback 0.0831578 3.16232 1.66321
thorax -5.1323 1.43735 -1.8645
lowerneck -16.6084 -3.78492 -1.84326
upperneck 21.799 -5.0038 0.863065
head 9.71877 -2.37573 -0.0528758
rclavicle 5.57645e-015 4.53478e-015
rhumerus -22.7659 -12.3814 -79.6894
rradius 30.9546
rwrist -0.0184393
rhand -18.8017 23.702
rfingers 7.12502
rthumb 7.49659 -6.14513
lclavicle 5.57645e-015 4.53478e-015
lhumerus -39.2451 0.345752 86.6622
lradius 24.4827
lwrist 4.52017
lhand -28.9839 19.8582
lfingers 7.12502
lthumb -2.33615 49.8252
rfemur 11.872 6.42153 31.5538
rtibia 34.4764
rfoot -14.6251 -1.56425
rtoes -7.12245
lfemur -24.1488 -4.62121 -12.8685
ltibia 21.3185
lfoot -2.89186 -0.444244
ltoes -9.46485
155
root 4.51926 17.7245 7.8872 -2.6983 -4.13384 -5.44325
lowerback 9.61657 1.73613 5.32919
upperback 0.0296197 2.98896 1.57033
thorax -5.18045 1.35676 -1.76392
lowerneck -16.2462 -3.78628 -1.85818
upperneck 21.874 -5.02224 0.908828
head 9.67966 -2.38291 -0.0304738
rclavicle 2.17219e-014 -2.75814e-015
rhumerus -23.4225 -12.501 -79.5905
rradius 30.9842
rwrist -0.0526361
rhand -19.0529 23.4851
rfingers 7.12502
rthumb 7.25405 -6.3706
lclavicle 2.17219e-014 -2.75814e-015
lhumerus -39.5973 0.599831 86.4919
lradius 24.1475
lwrist 4.8934
lhand -28.9792 19.1022
lfingers 7.12502
lthumb -2.33159 49.0692
rfemur 11.6105 6.06623 31.0137
rtibia 36.3709
rfoot -12.5197 -0.994253
rtoes -7.63181
lfemur -23.7146 -4.2764 -13.5503
ltibia 21.8581
lfoot -2.84363 -2.03644
ltoes -8.32553
156
root 4.53683 17.7311 8.11463 -3.07272 -3.83615 -4.85497
lowerback 9.69048 1.6503 4.72733
upperback 0.0151919 2.80648 1.44033
thorax -5.27019 1.27837 -1.54289
lowerneck -16.0516 -3.74481 -1.91235
upperneck 21.9888 -4.97831 0.996561
head 9.6873 -2.35791 0.0172773
rclavicle -1.45439e-014 1.54058e-015
rhumerus -23.8865 -12.9673 -79.394
rradius 30.6133
rwrist 0.250813
rhand -19.2311 23.7563
rfingers 7.12502
rthumb 7.08206 -6.10522
lclavicle -1.45439e-014 1.54058e-015
lhumerus -39.7505 0.921859 86.2963
lradius 23.7175
lwrist 4.86539
lhand -28.9065 17.4452
lfingers 7.12502
lthumb -2.26144 47.413
rfemur 11.2103 5.5633 30.1927
rtibia 38.5684
rfoot -10.2119 -0.548196
rtoes -7.16163
lfemur -23.2352 -4.32766 -14.379
ltibia 22.5146
lfoot -1.08431 -3.16865
ltoes -6.08509
157
root 4.55382 17.7388 8.33488 -3.29031 -3.5729 -4.33546
lowerback 9.81054 1.61663 4.13452
upperback -0.0911519 2.70286 1.37597
thorax -5.47888 1.23617 -1.2714
lowerneck -16.1455 -3.75039 -2.03916
upperneck 22.3404 -4.97304 1.05219
head 9.83472 -2.35654 0.0526128
rclavicle 2.02854e-014 -6.5102e-015
rhumerus -24.4163 -13.735 -79.0136
rradius 30.246
rwrist 0.828268
rhand -19.3502 24.1744
rfingers 7.12502
rthumb 6.96713 -5.69095
lclavicle 2.02854e-014 -6.5102e-015
lhumerus -39.9199 1.26208 86.088
lradius 23.5105
lwrist 4.1682
lhand -28.8341 17.4637
lfingers 7.12502
lthumb -2.19151 47.4322
rfemur 10.4273 5.05221 29.3798
rtibia 40.9879
rfoot -7.29994 -0.163891
rtoes -5.21407
lfemur -22.9182 -4.37377 -15.1471
ltibia 23.4161
lfoot -0.346449 -3.97123
ltoes -5.34278
158
root 4.57007 17.7342 8.5581 -3.47216 -3.37845 -4.15394
lowerback 9.66802 1.64146 3.94722
upperback -0.100753 2.70628 1.35506
thorax -5.41578 1.24419 -1.18404
lowerneck -16.0349 -3.88334 -2.01304
upperneck 22.4444 -5.14758 0.956785
head 9.85019 -2.44643 -0.00692434
rclavicle -2.08522e-014 -3.37934e-015
rhumerus -24.9129 -14.6358 -78.6307
rradius 30.0442
rwrist 1.08496
rhand -19.3227 23.8538
rfingers 7.12502
rthumb 6.99366 -6.01062
lclavicle -2.08522e-014 -3.37934e-015
lhumerus -39.7764 1.51595 85.8317
lradius 22.916
lwrist 3.42449
lhand -28.3913 18.8034
lfingers 7.12502
lthumb -1.76384 48.7758
rfemur 9.47056 4.45684 28.8501
rtibia 43.4997
rfoot -3.8741 0.319376
rtoes -2.63819
lfemur -22.5942 -4.10442 -15.6067
ltibia 24.4459
lfoot -0.824008 -4.49195
ltoes -7.34228
159
root 4.58396 17.7266 8.77558 -3.57656 -3.25105 -3.87711
lowerback 9.53652 1.6734 3.62725
upperback -0.140397 2.70367 1.2797
thorax -5.39396 1.25086 -1.07941
lowerneck -15.8379 -3.94406 -1.83563
upperneck 22.3389 -5.2452 0.811177
head 9.76735 -2.49602 -0.0941006
rclavicle -2.85653e-014 -5.31749e-015
rhumerus -25.4683 -15.5408 -78.3024
rradius 29.8934
rwrist 1.55108
rhand -19.1973 23.7893
rfingers 7.12502
rthumb 7.11474 -6.07114
lclavicle -2.85653e-014 -5.31749e-015
lhumerus -39.5382 1.83897 85.4322
lradius 22.4129
lwrist 2.72228
lhand -27.4073 20.6537
lfingers 7.12502
lthumb -0.813505 50.6319
rfemur 8.3132 3.92212 28.1981
rtibia 45.9894
rfoot 0.0323388 0.985893
rtoes -1.20571
lfemur -22.3321 -3.61725 -16.1843
ltibia 25.5101
lfoot -1.99099 -4.65208
ltoes -9.2754
